<svg xmlns="http://www.w3.org/2000/svg" aria-hidden="true" style="position:absolute;width:0;height:0;overflow:hidden">
  <defs>
   <symbol id="icon-photo" viewBox="0 0 32 32">
  <path d="M19.654 17.462a3.654 3.654 0 1 1-7.308 0 3.654 3.654 0 0 1 7.308 0z"
        fill="none" stroke="currentColor" stroke-width="1"/>
  <path d="M6.5 22.5v-8.906a2.71 2.71 0 0 1 2.71-2.71 2.71 2.71 0 0 0 2.424-1.498l.614-1.228A3 3 0 0 1 14.931 6.5h2.138a3 3 0 0 1 2.683 1.658l.614 1.228a2.71 2.71 0 0 0 2.424 1.498 2.71 2.71 0 0 1 2.71 2.71V22.5a3 3 0 0 1-3 3h-13a3 3 0 0 1-3-3z"
        fill="none" stroke="currentColor" stroke-width="1"/>
</symbol>
    <symbol id="icon-arrow-back" viewBox="0 0 32 32">
      <path fill="none" stroke="#fff" stroke-linecap="round" stroke-linejoin="round" stroke-width="1.28" d="M21.76 16.004H10.24m0 0 5.168 5.17m-5.168-5.17 5.168-5.17" style="stroke:var(--color1, #fff)"/>
    </symbol>
    <symbol id="icon-arrow-up" viewBox="0 0 32 32">
      <path stroke-linecap="round" stroke-linejoin="round" stroke-width="1.333" d="m7 20.5 9-9 9 9"/>
    </symbol>
    <symbol id="icon-arrow-down" viewBox="0 0 32 32">
      <path stroke="currentColor" stroke-linecap="round"  stroke-linejoin="round" stroke-width="1.333" d="m25 11.5-9 9-9-9"/>
    </symbol>
    <symbol id="icon-arrow-backward" viewBox="0 0 33 32">
      <path fill="none" stroke="#fff" stroke-linecap="round" stroke-linejoin="round" stroke-width="1.333" d="m26.664 16-19.996.004m0 0 5.384 5.386m-5.384-5.386 5.384-5.386" style="stroke:var(--color1, #fff)"/>
    </symbol>
    <symbol id="icon-arrow-forward" viewBox="0 0 32 32">
      <path fill="none" stroke="#fff" stroke-linecap="round" stroke-linejoin="round" stroke-width="1.333" d="M6 16.004 25.996 16m0 0-5.384-5.386M25.996 16l-5.384 5.386" style="stroke:var(--color1, #fff)"/>
    </symbol>
    <symbol id="icon-burger" viewBox="0 0 32 32">
      <path fill="none" stroke="#fff" stroke-linecap="round" stroke-width="1.293" d="M7.758 9.536h16.485M7.758 21.172h16.485M7.758 15.354h16.485" style="stroke:var(--color1, #fff)"/>
    </symbol>
    <symbol id="icon-clock" viewBox="0 0 32 32">
      <path stroke-linecap="round" stroke-linejoin="round" stroke-width=".667" d="M16 10.154v6.577l4.385 3.654M25.5 16c0 5.247-4.253 9.5-9.5 9.5S6.5 21.247 6.5 16s4.253-9.5 9.5-9.5 9.5 4.253 9.5 9.5z"/>
    </symbol>
    <symbol id="icon-close" viewBox="0 0 32 32">
      <path stroke-linecap="round" stroke-linejoin="round" stroke-width="1.28" d="M7.36 7.36 16 16m0 0-8.64 8.64M16 16l8.64 8.64M16 16l8.64-8.64"/>
    </symbol>
    <symbol id="icon-delete" viewBox="0 0 32 32">
      <path   stroke-linecap="round" stroke="currentColor" stroke-linejoin="round" stroke-width="1.333" d="M16 21.846v-8.769M6.5 9.423h2.192m16.808 0h-2.192m-3.654 0h-7.308m7.308 0V7.961c0-.807-.654-1.462-1.462-1.462h-4.385c-.807 0-1.462.654-1.462 1.462v1.462m7.309 0h3.654m-10.962 0H8.692m14.616 0v13.154a2.923 2.923 0 0 1-2.923 2.923h-8.769a2.923 2.923 0 0 1-2.923-2.923V9.423"/>
    </symbol>
    <symbol id="icon-eye-crossed" viewBox="0 0 32 32">
      <path stroke-linecap="round" stroke-width="1.28" d="M19.086 22.384c-1.042.484-2.2.799-3.418.799-4.588 0-8.308-4.469-8.308-5.604 0-.644 1.195-2.358 3.066-3.723m12.553 5.519c.636-.765.997-1.442.997-1.796 0-1.135-3.719-5.604-8.308-5.604 2.019 0 3.655 1.623 3.655 3.626m-3.655 3.626c-2.019 0-3.655-1.623-3.655-3.626m12.627-3.626C22.11 9.881 19.156 8.679 16 8.679c-1.137 0-2.248.156-3.323.454M7.36 11.975c.235-.194.473-.381.714-.559M7.36 7.36l16.046 16.2"/>
    </symbol>
    <symbol id="icon-eye-open" viewBox="0 0 32 32">
      <path stroke-linecap="round" stroke-width="1.333" d="M15.654 11.909C10.875 11.909 7 16.53 7 17.704s3.874 5.795 8.654 5.795c4.779 0 8.654-4.621 8.654-5.795s-3.875-5.795-8.654-5.795zm0 0c-2.103 0-3.808 1.679-3.808 3.75s1.705 3.75 3.808 3.75c2.103 0 3.808-1.679 3.808-3.75s-1.705-3.75-3.808-3.75zm9.346 0C22.364 9.743 19.287 8.5 16 8.5s-6.364 1.243-9 3.409"/>
    </symbol>
    <symbol id="icon-filter" viewBox="0 0 32 32">
      <path stroke-width="1.28" d="M9.192 7.84h13.616a1.832 1.832 0 0 1 1.332 3.09l-6.146 6.511v4.507a1.994 1.994 0 1 1-3.988 0v-4.507L7.86 10.93a1.832 1.832 0 0 1 1.332-3.09z"/>
    </symbol>
    <symbol id="icon-flag" viewBox="0 0 32 32">
      <path stroke-linecap="round" stroke-linejoin="round" stroke-width="1.333" d="M15.996 4.667c1.685 0 3.231.161 4.457.348 1.552.236 2.768 1.299 3.115 2.785.418 1.794.828 4.522.758 8.187-.078 4.044-.668 6.962-1.237 8.866-.154.515-.51.78-.913.848-.421.071-.941-.069-1.363-.49-.769-.766-1.65-1.593-2.462-2.232a9.094 9.094 0 0 0-1.184-.811c-.353-.196-.767-.374-1.171-.374-.397 0-.825.175-1.199.367-.399.205-.84.486-1.292.805-.905.639-1.907 1.466-2.789 2.233-.466.405-1.014.5-1.447.383-.417-.114-.769-.434-.878-.992-.372-1.917-.725-4.749-.725-8.59 0-3.831.395-6.534.788-8.273.326-1.442 1.502-2.468 3.014-2.702a29.972 29.972 0 0 1 4.527-.358z"/>
    </symbol>
    <symbol id="icon-logo" viewBox="0 0 32 32">
      <path fill="#fff" d="M13.733 6.616c.322-.034.655.001.967.079.927.232 1.556.801 2.033 1.597.38-.04.764-.017 1.135.069a3.135 3.135 0 0 1 1.907 1.378 2.932 2.932 0 0 1 .356 2.287c-.265 1.003-.902 1.525-1.769 2.025.024.616.015 1.234.016 1.85.001.389.026.795-.012 1.182a.975.975 0 0 1-.134.44.81.81 0 0 1-.403.134c-.397.048-.828.015-1.228.015l-2.359-.008c-.839.062-1.728.003-2.572.004-.562 0-1.194.066-1.749.004-.198-.022-.282-.153-.391-.298-.07-1.105-.011-2.247-.01-3.356-.462-.236-.855-.526-1.177-.933a2.878 2.878 0 0 1-.6-2.166 3.118 3.118 0 0 1 1.226-2.042 3.025 3.025 0 0 1 2.247-.573c.113-.196.226-.392.366-.571.54-.688 1.293-1.009 2.149-1.117zm.046 1.358c-.526.103-.98.291-1.297.747-.178.255-.34.988-.562 1.099-.293.035-.6-.1-.885-.162-.571-.124-1.216.102-1.569.561a1.813 1.813 0 0 0-.35 1.365c.07.423.329.778.684 1.021.387.265.818.317 1.085.733.049.963.014 1.943.015 2.908 1.124-.009 2.248-.011 3.372-.007l2.746-.006c0-.489-.106-2.922.123-3.161.107-.112.353-.18.498-.237.654-.254 1.133-.695 1.192-1.421a1.64 1.64 0 0 0-.439-1.267 1.584 1.584 0 0 0-1.117-.524c-.387-.023-1.184.342-1.427.071-.118-.132-.166-.36-.226-.526-.248-.685-.765-1.082-1.493-1.176a2.402 2.402 0 0 0-.349-.019zM26.702 2.374c.244-.018.536-.014.728.161.179.163.188.425.128.643-.145.528-.608 1.16-.887 1.641-.446.768-.863 1.558-1.296 2.334-.268.481-.592.973-.807 1.475-.068.16-.12.328-.112.503.006.152.06.267.178.367.166.141.385.252.61.222.15-.02.27-.098.363-.214.318-.395.506-.945.738-1.391l1.601-3.089c.189-.369.356-.822.622-1.142.14-.169.271-.249.495-.268a.659.659 0 0 1 .487.146.618.618 0 0 1 .206.562c-.061.397-.415.879-.604 1.24l-1.453 2.849c-.259.514-.563 1.039-.772 1.574-.048.124-.097.264-.079.399.021.158.139.297.267.387.143.1.338.167.515.128.203-.045.345-.191.458-.354.259-.37.43-.856.62-1.265l1.241-2.629c.234-.499.447-1.085.758-1.539.112-.163.233-.293.439-.325.209-.032.42.056.578.186.131.109.229.237.235.411.015.447-.805 1.999-1.028 2.497l-.879 1.964c-.432.969-.8 1.94-1.528 2.741-.717.789-1.532 1.124-2.516 1.476-.207.074-.526.148-.702.273-.348.249-.59.709-.794 1.071-.157.279-.357.582-.455.886-.145.449-.049 1.821-.049 2.363l-.002 6.996.004 2.139c.001.419.026.857-.02 1.273a.727.727 0 0 1-.191.432c-.341.331-1.596.214-2.078.211l-3.285-.004c.189-.502.423-.996.67-1.473.426-.044.864-.025 1.293-.025l2.119.001v-9.143c-.274.65-.624 1.286-.94 1.918a350.792 350.792 0 0 0-1.668 3.367 298.654 298.654 0 0 1-2.023 4.092c-.286.568-.541 1.166-.866 1.713a1.639 1.639 0 0 1-.512.564c-.3.192-.664.26-1.015.19a1.272 1.272 0 0 1-.824-.578 1.186 1.186 0 0 1-.135-.992c.169-.561.524-1.103.805-1.617l1.336-2.445c1.618-2.962 3.249-5.923 4.814-8.912.369-.705 1.204-2.04 1.405-2.704.219-.722-.241-1.587-.376-2.298a4.212 4.212 0 0 1 .35-2.665c.214-.421.471-.824.709-1.231l1.234-2.13.996-1.727c.197-.34.383-.707.621-1.021a.84.84 0 0 1 .272-.219z" style="fill:var(--color1, #fff)"/>
      <path fill="#fff" d="M4.303 1.093c1.142-.06 2.31-.009 3.455-.008l12.521-.001c.966 0 1.97-.055 2.933.006.197.012.421.067.57.203.131.119.187.329.212.496.051.339.021.71.02 1.053l-.008 1.946c-.477.767-.999 1.512-1.5 2.263.044-.504.014-1.029.014-1.536V2.662c-5.711.005-11.429.057-17.14-.003-.058 2.336-.005 4.687-.005 7.025l.003 12.921 10.081-.008c.441-.001.911-.032 1.348.024-.162.503-.471 1.008-.711 1.481l-10.323-.018c-.544.001-1.112-.025-1.651.054a2.598 2.598 0 0 0-1.265.546c-.444.355-.768.868-.814 1.438-.041.502.158.986.484 1.364.306.355.776.624 1.24.711.678.128 1.687.037 2.401.039l4.855.004c.903.001 1.822-.037 2.722.028-.16.467-.306.972-.397 1.457-.814-.072-1.681-.013-2.502-.013l-4.862-.001c-.846.002-1.809.099-2.635-.078-.58-.124-1.124-.425-1.577-.798-.731-.6-1.191-1.526-1.266-2.456-.042-.52-.012-1.06-.009-1.581l.001-2.533v-8.76L.496 7.431C.495 6.65.423 5.276.529 4.538c.1-.731.413-1.418.903-1.976A4.246 4.246 0 0 1 4.304 1.09zm-.452 1.635c-.804.326-1.394.735-1.737 1.551-.118.282-.15.628-.16.932-.05 1.486-.004 2.991-.003 4.48l.001 8.593.001 3.81c0 .432-.081 1.02.015 1.432l.034.012.053-.034c.606-.448 1.12-.693 1.865-.849-.058-2.124-.007-4.264-.005-6.389.003-2.388-.039-4.782-.012-7.169.016-1.562.019-3.125.01-4.687 0-.376.062-1.357-.011-1.665l-.051-.015z" style="fill:var(--color1, #fff)"/>
    </symbol>
    <symbol id="icon-logout" viewBox="0 0 32 32">
      <path fill="none" stroke="#fff" stroke-linecap="round" stroke-linejoin="round" stroke-width="1.333" d="M13.077 6.5H9.423A2.923 2.923 0 0 0 6.5 9.423v13.154A2.923 2.923 0 0 0 9.423 25.5h3.654M11.5 16h14.615m0 0-4.385 4.385M26.115 16l-4.385-4.385" style="stroke:var(--color1, #fff)"/>
    </symbol>
  </defs>
</svg>
