<svg width="32" height="30" viewBox="0 0 32 30" fill="none" xmlns="http://www.w3.org/2000/svg">
<path d="M13.7335 5.61519C14.0557 5.58158 14.388 5.61572 14.701 5.69392C15.6281 5.92561 16.2567 6.49481 16.7343 7.29074C17.114 7.25044 17.4978 7.27394 17.8696 7.36022C18.6632 7.55694 19.3475 8.0512 19.7769 8.73777C19.9888 9.07607 20.1295 9.45296 20.1906 9.84599C20.2516 10.239 20.2317 10.6401 20.1321 11.0254C19.8668 12.0281 19.2302 12.5502 18.3631 13.0503C18.3872 13.6659 18.3781 14.2845 18.3795 14.9006C18.3802 15.2898 18.4057 15.6959 18.3675 16.0822C18.3511 16.2461 18.3191 16.3803 18.2339 16.522C18.1094 16.611 17.982 16.638 17.8306 16.6563C17.4339 16.7039 17.0029 16.6717 16.6029 16.6708L14.2438 16.6624C13.4048 16.7244 12.5162 16.6658 11.672 16.6664C11.1101 16.6669 10.4775 16.7327 9.92259 16.6702C9.72461 16.6479 9.64013 16.5175 9.5318 16.3719C9.46181 15.2669 9.52125 14.1251 9.52172 13.016C9.05956 12.7799 8.66645 12.4901 8.34454 12.0827C8.10434 11.7788 7.92771 11.4309 7.82485 11.0593C7.722 10.6876 7.69498 10.2995 7.74534 9.91748C7.86585 9.10454 8.30632 8.37104 8.97144 7.87572C9.62928 7.38971 10.408 7.19163 11.2187 7.3029C11.3316 7.10719 11.4442 6.91069 11.5843 6.73227C12.1245 6.04427 12.8771 5.72287 13.7335 5.61519ZM13.7787 6.97239C13.2523 7.07566 12.7988 7.2638 12.4812 7.71929C12.3034 7.97426 12.141 8.70692 11.9194 8.8188C11.626 8.85338 11.319 8.71854 11.0347 8.6567C10.464 8.53252 9.81903 8.75897 9.46534 9.2175C9.17444 9.59461 9.03747 10.1146 9.11536 10.5827C9.18587 11.0061 9.44485 11.3612 9.79923 11.6038C10.1859 11.8686 10.617 11.9212 10.8841 12.3369C10.9333 13.2999 10.8976 14.2797 10.8991 15.2448C12.0231 15.2361 13.1471 15.2337 14.2711 15.2376L17.0167 15.2321C17.0164 14.7429 16.9108 12.31 17.1394 12.0711C17.2468 11.9591 17.4925 11.8907 17.6377 11.8344C18.2918 11.5801 18.7704 11.1393 18.8301 10.4138C18.8698 9.9347 18.7133 9.504 18.3912 9.14684C18.0978 8.82163 17.7149 8.64913 17.2741 8.62323C16.8871 8.60045 16.0904 8.96573 15.8472 8.69379C15.7289 8.56136 15.6816 8.33415 15.6212 8.16774C15.3737 7.48301 14.8561 7.0856 14.1281 6.99126C14.0113 6.97616 13.8962 6.96995 13.7787 6.97239Z" fill="white"/>
<path d="M26.7012 1.37288C26.9447 1.35534 27.237 1.3585 27.4291 1.53373C27.6082 1.69687 27.6166 1.95865 27.5569 2.1766C27.4124 2.70465 26.949 3.33698 26.6702 3.81726C26.224 4.58553 25.8076 5.37501 25.3744 6.15154C25.1065 6.63243 24.7822 7.12428 24.5678 7.62676C24.4998 7.78656 24.4481 7.95433 24.4557 8.12956C24.4623 8.28176 24.5161 8.3963 24.6333 8.4962C24.7993 8.63749 25.0184 8.74779 25.2437 8.71816C25.3937 8.69847 25.5138 8.61991 25.6066 8.50455C25.9244 8.10976 26.1126 7.5599 26.3448 7.11324L27.9453 4.02427C28.1346 3.65494 28.3013 3.20182 28.567 2.8825C28.7075 2.71366 28.8382 2.63345 29.0624 2.61458C29.2396 2.59966 29.4122 2.64543 29.549 2.76033C29.711 2.89667 29.7867 3.1162 29.7547 3.32256C29.6932 3.71933 29.3397 4.20122 29.1512 4.56286L27.6981 7.41175C27.439 7.92556 27.135 8.45085 26.9261 8.98612C26.8777 9.11059 26.8293 9.24998 26.8475 9.38511C26.8686 9.54348 26.9862 9.68258 27.1143 9.77233C27.2577 9.87273 27.4528 9.93935 27.629 9.90061C27.8317 9.85602 27.9737 9.7097 28.0872 9.54688C28.3457 9.17698 28.5168 8.69115 28.7071 8.28176L29.9476 5.65276C30.1813 5.15365 30.3942 4.56753 30.7058 4.11423C30.8179 3.95113 30.9384 3.82095 31.1448 3.78942C31.3537 3.75753 31.5652 3.84513 31.7228 3.97591C31.8542 4.08474 31.9521 4.21248 31.9579 4.3866C31.9732 4.83358 31.1528 6.38528 30.9296 6.88409L30.0506 8.84859C29.6189 9.81735 29.2506 10.7885 28.5229 11.59C27.8062 12.3794 26.9909 12.7142 26.007 13.0663C25.7996 13.1406 25.4814 13.2137 25.3053 13.3395C24.9573 13.5881 24.7149 14.048 24.5107 14.4106C24.3542 14.6894 24.154 14.9922 24.0557 15.2969C23.9112 15.7456 24.0069 17.1181 24.0069 17.6598L24.0054 24.6559L24.0091 26.7948C24.0098 27.2138 24.0353 27.6518 23.9887 28.0679C23.9716 28.2204 23.9112 28.3904 23.798 28.4998C23.4573 28.8305 22.2019 28.7136 21.72 28.7111L18.4346 28.7068C18.6238 28.2046 18.8579 27.711 19.1047 27.2335C19.5309 27.1894 19.9692 27.2084 20.3979 27.2081L22.5171 27.2092L22.5175 18.0665C22.243 18.7167 21.8936 19.3524 21.5776 19.9846C21.0156 21.1041 20.4597 22.2266 19.9098 23.352C19.2461 24.7209 18.5718 26.0849 17.8871 27.4438C17.6007 28.0116 17.3462 28.6103 17.0208 29.1569C16.8887 29.3786 16.7293 29.5788 16.5083 29.7212C16.2082 29.9127 15.8441 29.9811 15.4935 29.9117C15.3231 29.8765 15.1619 29.8071 15.02 29.7077C14.8781 29.6083 14.7585 29.4811 14.6687 29.3341C14.4787 29.0285 14.4303 28.686 14.5337 28.3423C14.7026 27.7809 15.0582 27.2393 15.3388 26.7249L16.6747 24.2803C18.2926 21.3182 19.924 18.3574 21.4892 15.3681C21.8583 14.6636 22.6936 13.3282 22.8946 12.6644C23.1137 11.942 22.6536 11.0771 22.5189 10.3665C22.3977 9.72739 22.4126 9.11206 22.5771 8.4817C22.6462 8.21227 22.7439 7.95077 22.8687 7.70155C23.0824 7.28075 23.3401 6.87789 23.5781 6.47007L24.8121 4.33996L25.8079 2.61293C26.0045 2.27252 26.1912 1.90574 26.4293 1.59223C26.5035 1.49438 26.5956 1.43444 26.7012 1.37288Z" fill="white"/>
<path d="M4.30322 0.0927975C5.44557 0.0331445 6.61325 0.0842247 7.75866 0.085265L14.3232 0.0876678L20.2792 0.0847264C21.2452 0.0846188 22.2491 0.0295217 23.2118 0.0906454C23.4088 0.103128 23.6326 0.157974 23.7815 0.293745C23.9122 0.412943 23.9682 0.622392 23.9933 0.789299C24.0443 1.12785 24.0141 1.49893 24.0134 1.8421L24.005 3.78852C23.5282 4.55515 23.0062 5.30004 22.5053 6.05193C22.5494 5.54748 22.5188 5.0229 22.5188 4.5158L22.5184 1.66329C16.8074 1.66824 11.0892 1.72014 5.37867 1.65985C5.32097 3.99603 5.37382 6.34703 5.37375 8.68455L5.37688 21.6059L13.0743 21.6027L15.4578 21.5984C15.8989 21.5977 16.3685 21.5668 16.8056 21.622C16.6433 22.1248 16.3346 22.6299 16.0947 23.1034L8.16032 23.0865L5.77152 23.0855C5.2271 23.0865 4.65996 23.0607 4.12078 23.1396C3.65661 23.205 3.21931 23.3939 2.85592 23.6859C2.41167 24.0407 2.08823 24.554 2.04189 25.1236C2.00109 25.6251 2.20001 26.1094 2.526 26.4878C2.832 26.8429 3.30228 27.1116 3.76651 27.1991C4.44488 27.3272 5.45307 27.2364 6.16732 27.2386L11.0219 27.2429C11.9245 27.2436 12.8439 27.2056 13.7437 27.2712C13.5839 27.7382 13.438 28.2437 13.347 28.7279C12.5328 28.6558 11.6659 28.7146 10.845 28.7146L5.98347 28.7136C5.13745 28.7157 4.17451 28.8126 3.34898 28.6357C2.76925 28.5116 2.22508 28.2103 1.7717 27.838C1.04059 27.2382 0.5805 26.3124 0.50581 25.3823C0.46406 24.8621 0.494271 24.3226 0.496601 23.8007L0.49773 21.2677L0.497294 12.5081L0.495583 6.43409C0.495001 5.65283 0.422128 4.27898 0.528559 3.54155C0.628202 2.81022 0.942069 2.12339 1.43173 1.56515C2.15294 0.718572 3.18582 0.188963 4.30322 0.0927975ZM3.85099 1.72685C3.04679 2.05302 2.45658 2.46156 2.1141 3.2774C1.99592 3.55891 1.96439 3.90589 1.95413 4.20907C1.90383 5.69555 1.95027 7.20015 1.95129 8.68889L1.95249 17.2824L1.95311 21.0921C1.95347 21.5237 1.87249 22.1123 1.96814 22.5237L2.0025 22.5356L2.05576 22.5011C2.66187 22.0531 3.17576 21.8081 3.92044 21.6526C3.86224 19.5289 3.9132 17.3891 3.9155 15.2642C3.91808 12.8758 3.87626 10.4824 3.90345 8.09469C3.91912 6.53227 3.92243 4.96976 3.91338 3.40729C3.91316 3.03122 3.97526 2.05076 3.90217 1.74192L3.85099 1.72685Z" fill="white"/>
</svg>
